<?xml version="1.0" standalone="no"?>
<!DOCTYPE svg PUBLIC "-//W3C//DTD SVG 20010904//EN"
 "http://www.w3.org/TR/2001/REC-SVG-20010904/DTD/svg10.dtd">
<svg version="1.0" xmlns="http://www.w3.org/2000/svg"
 width="164.000000pt" height="164.000000pt" viewBox="0 0 164.000000 164.000000"
 preserveAspectRatio="xMidYMid meet">

<g transform="translate(0.000000,164.000000) scale(0.100000,-0.100000)"
fill="#000000" stroke="none">
<path d="M551 1234 c-62 -56 -91 -108 -98 -179 -12 -118 54 -228 175 -287 61
-30 74 -33 162 -33 108 0 150 15 161 56 15 58 -49 138 -171 214 -127 80 -186
156 -177 231 2 24 3 44 2 44 -2 0 -26 -21 -54 -46z"/>
<path d="M821 1264 c0 -11 3 -14 6 -6 3 7 2 16 -1 19 -3 4 -6 -2 -5 -13z"/>
<path d="M726 1253 c-6 -14 -5 -15 5 -6 7 7 10 15 7 18 -3 3 -9 -2 -12 -12z"/>
<path d="M890 1240 c-9 -6 -10 -10 -3 -10 6 0 15 5 18 10 8 12 4 12 -15 0z"/>
<path d="M932 1243 c-10 -4 -10 -8 -1 -19 9 -10 9 -17 0 -28 -6 -7 -9 -21 -5
-30 3 -9 1 -22 -4 -29 -7 -8 -7 -18 -2 -27 13 -21 12 -33 -2 -24 -7 4 -8 3 -4
-5 4 -6 12 -9 17 -6 5 4 9 1 9 -6 0 -7 3 -10 6 -7 3 4 -1 19 -10 36 -16 30 -6
55 18 46 7 -3 26 2 42 11 16 8 23 15 16 15 -7 0 -21 -6 -32 -12 -16 -10 -23
-10 -36 4 -12 12 -14 21 -7 30 8 11 17 60 10 57 -1 0 -8 -3 -15 -6z"/>
<path d="M700 1201 c0 -11 4 -22 9 -25 4 -3 6 6 3 19 -5 30 -12 33 -12 6z"/>
<path d="M807 1179 c7 -7 15 -10 18 -7 3 3 -2 9 -12 12 -14 6 -15 5 -6 -5z"/>
<path d="M846 1153 c-6 -14 -5 -15 5 -6 7 7 10 15 7 18 -3 3 -9 -2 -12 -12z"/>
<path d="M755 1140 c2 -14 5 -28 5 -32 0 -5 10 -7 23 -7 15 1 17 3 5 6 -9 2
-22 16 -27 31 -11 26 -11 26 -6 2z"/>
<path d="M849 1129 c-11 -7 -10 -9 4 -9 12 0 16 -4 11 -12 -5 -8 -1 -8 12 2
10 8 20 15 22 16 1 1 -6 4 -16 7 -11 2 -26 1 -33 -4z"/>
<path d="M998 1113 c7 -3 16 -2 19 1 4 3 -2 6 -13 5 -11 0 -14 -3 -6 -6z"/>
<path d="M834 1086 c-9 -24 15 -56 41 -56 13 0 26 4 29 8 3 5 -8 6 -24 4 -22
-3 -29 1 -35 17 -3 11 -3 25 0 31 3 5 4 10 0 10 -3 0 -8 -6 -11 -14z"/>
<path d="M930 1030 c0 -11 4 -20 9 -20 5 0 7 9 4 20 -3 11 -7 20 -9 20 -2 0
-4 -9 -4 -20z"/>
<path d="M994 1025 c-4 -8 -12 -15 -20 -15 -8 0 -14 -3 -14 -7 0 -5 13 -8 29
-8 22 0 27 3 19 12 -5 7 -7 17 -3 23 3 5 4 10 0 10 -3 0 -8 -7 -11 -15z"/>
<path d="M727 424 c-17 -18 -6 -43 23 -49 43 -10 72 2 68 28 -2 18 -11 23 -43
25 -23 2 -44 0 -48 -4z"/>
<path d="M410 329 c0 -81 2 -90 18 -87 13 2 18 17 22 67 l5 64 25 -67 c31 -85
49 -87 80 -8 33 83 40 84 40 9 0 -61 2 -67 20 -67 20 0 21 5 18 88 l-3 87 -30
0 c-27 0 -31 -5 -54 -64 -20 -50 -27 -60 -33 -45 -49 119 -46 114 -78 114
l-30 0 0 -91z"/>
<path d="M940 410 c0 -5 20 -10 45 -10 l45 0 0 -80 c0 -73 2 -80 20 -80 17 0
19 8 22 78 l3 77 43 3 c23 2 42 7 42 13 0 5 -48 9 -110 9 -67 0 -110 -4 -110
-10z"/>
<path d="M750 300 c0 -53 2 -60 20 -60 18 0 20 7 20 60 0 53 -2 60 -20 60 -18
0 -20 -7 -20 -60z"/>
<path d="M822 282 c4 -44 28 -56 28 -14 0 16 6 32 14 35 18 7 26 -1 26 -29 0
-13 5 -26 10 -29 6 -4 10 8 10 29 0 20 -3 37 -7 37 -5 1 -25 3 -46 4 -38 2
-38 2 -35 -33z"/>
</g>
</svg>
